<?xml version="1.0" standalone="no"?><!DOCTYPE svg PUBLIC "-//W3C//DTD SVG 1.1//EN" "http://www.w3.org/Graphics/SVG/1.1/DTD/svg11.dtd"><svg t="1731784471376" class="icon" viewBox="0 0 1024 1024" version="1.1" xmlns="http://www.w3.org/2000/svg" p-id="4639" xmlns:xlink="http://www.w3.org/1999/xlink" width="200" height="200"><path d="M650.085747 347.513326l-333.274623 311.47161c-49.093859-78.461182-36.634994-134.526072 9.344148-177.983777A251.253766 251.253766 0 0 0 309.098494 563.615295a406.841251 406.841251 0 0 0 8.00927 95.369641z m347.513326-44.495945a608.11124 608.11124 0 0 0 11.865585-142.831981 376.28737 376.28737 0 0 0-25.807648-122.215527C736.407879 413.515643 756.431054 496.723059 664.621089 613.747393zM163.151796 556.792584c44.495944-86.915411 99.225956-103.082271 161.223639-76.088065A254.220162 254.220162 0 0 0 243.541136 504.28737 412.922364 412.922364 0 0 0 163.151796 556.792584z m165.821553-77.867903c46.424102-89.881808 106.493627-92.106605 170.419467-52.208574a253.330243 253.330243 0 0 0-82.910777 11.717265 419.893395 419.893395 0 0 0-87.80533 40.491309z m-4.301275-2.373117A256.14832 256.14832 0 0 0 246.804171 444.959444a414.257242 414.257242 0 0 0-95.51796-9.789108c89.436848-45.979143 142.387022-24.32445 173.089224 41.381228z m2.818077 0c-34.410197-93.738123 4.152955-138.975666 83.059096-157.812282a255.406721 255.406721 0 0 0-50.428737 66.892236 420.931634 420.931634 0 0 0-32.926999 90.771726z m567.026651-14.831981a614.192352 614.192352 0 0 0-120.13905-78.016223 382.220162 382.220162 0 0 0-119.84241-35.300116c92.551564-45.089224 174.720742-22.099652 239.68482 113.168019zM647.267671 345.585168a615.97219 615.97219 0 0 0-130.076477-60.069525 374.655852 374.655852 0 0 0-123.698726-17.650058c89.140209-49.390498 180.801854-48.797219 253.775203 77.719583z m6.526072-3.411356c44.495944-91.809965 121.770568-128.14832 257.928157-62.590961a610.336037 610.336037 0 0 0-142.535341 14.831981 377.918888 377.918888 0 0 0-115.392816 47.75898z m-4.301275 0a625.019699 625.019699 0 0 0-48.945539-134.526072 377.325608 377.325608 0 0 0-74.159907-100.115874C628.282735 133.487833 685.830823 198.748552 649.492468 341.135574z" fill="#99CC00" p-id="4640"></path><path d="M382.368482 731.365006c6.377752-120.435689-23.434531-202.011587-69.710313-270.980301a377.177289 377.177289 0 0 1 122.660487 270.980301z m91.513326 0a561.390498 561.390498 0 0 1 182.581691-403.726536c-68.820394 102.637312-113.168019 224.407879-103.82387 403.726536z" fill="#FFFFFF" p-id="4641"></path><path d="M313.696408 808.34299c64.519119-142.238702 258.521437-131.856315 301.830823 0z" fill="#FFDA6A" p-id="4642"></path><path d="M313.696408 821.543453a13.052144 13.052144 0 0 1-11.865585-18.688297 186.438007 186.438007 0 0 1 74.159907-84.393974l4.301275-2.224797v-20.913094a413.812283 413.812283 0 0 0-37.376594-158.702202l-10.234067-20.171495v3.114717c-1.483198 14.831981-1.483198 29.663963-2.224797 45.979142a382.516802 382.516802 0 0 0 1.186558 92.254925V666.994206l-5.339513 1.928158-0.889919 1.334878H322.892236l-1.483198 0.889919H314.586327l-1.631518-0.741599H309.840093l-1.186559-1.334878-1.334878-1.038239c-52.653534-60.959444-56.658169-112.871379-27.884125-156.180765l7.267671-9.492468a269.052144 269.052144 0 0 0-37.228274 14.831982 393.937428 393.937428 0 0 0-78.016222 50.725376h-1.334879l-1.186558 0.889919h-10.085748l-0.889918-0.889919h-1.038239l-1.186559-1.038239-1.483198-0.889918v-0.7416h-0.741599v-1.334878l-2.521437-0.29664v-10.085747c18.391657-52.208575 43.754345-82.910776 74.159908-95.8146l5.932792-1.928158-9.047509-1.779838a434.132097 434.132097 0 0 0-70.155272-5.042873 13.348783 13.348783 0 0 1-6.674392-24.769409C210.910776 386.669757 261.042874 385.631518 296.639629 415.295481l1.334879 1.334878v-2.966396c-1.779838-60.069525 40.787949-93.293163 110.053302-106.493627a13.200463 13.200463 0 0 1 11.568946 22.544612 237.311703 237.311703 0 0 0-47.610661 63.77752l-5.932793 12.458865 1.928158-1.483199c41.084589-31.74044 88.991889-21.803013 138.975666 12.903824a13.200463 13.200463 0 0 1-8.157589 23.87949 237.311703 237.311703 0 0 0-78.609502 11.420626 326.303592 326.303592 0 0 0-42.716107 16.611819l-29.663963 15.721901 11.568946 12.607184a377.622248 377.622248 0 0 1 92.996524 190.294322l0.889918 5.636153h16.31518l1.334878-11.272306a581.710313 581.710313 0 0 1 133.487833-302.424102l24.76941-26.845886-20.023175-11.865585a541.812283 541.812283 0 0 0-95.96292-41.084589 357.599073 357.599073 0 0 0-118.655852-17.056779 13.200463 13.200463 0 0 1-8.899189-24.917729c74.159907-47.017381 150.099652-59.327926 213.728853-1.038238l13.348783 13.645423-9.789108-25.066049c-4.597914-10.530707-9.640788-20.913094-14.831981-31.147161a360.417149 360.417149 0 0 0-71.93511-96.704519 13.200463 13.200463 0 0 1 11.865585-22.396292c96.556199 21.061414 157.960603 73.121669 150.099652 173.979142l-1.928157 14.831982 8.602549-9.047509c51.022016-49.390498 125.626883-57.696408 231.97219-6.674392a13.200463 13.200463 0 0 1-5.636153 25.066049 597.580533 597.580533 0 0 0-139.568945 14.831982l-18.243338 5.042873h6.229433c57.548088 7.86095 107.235226 52.801854 146.095017 143.87022v8.899189l-1.186559 1.779838-1.038238 1.631518v0.889919l-1.779838 1.186558-1.483198 1.334879h-1.038239l-1.779838 0.741599H890.363847l-2.818076 0.889919-1.631518-0.889919a598.322132 598.322132 0 0 0-117.469294-76.384705 383.85168 383.85168 0 0 0-56.509849-22.247972l-13.942062-3.559675 9.195828 9.195828c57.993048 63.92584 54.581692 143.573581-33.223638 243.096176l-1.186559 0.889919-1.186558 1.186559h-11.123987l-1.334878-0.889919h-1.631518v-0.741599h-0.741599l-0.889919-1.186559-2.224797-0.14832v-10.382387a601.288528 601.288528 0 0 0 11.865585-139.717265 373.469293 373.469293 0 0 0-14.831981-88.991889l-1.334879-3.707995-7.119351 12.162225A623.68482 623.68482 0 0 0 564.505214 697.103129v23.73117l2.224798 1.186558a158.553882 158.553882 0 0 1 61.256083 82.169178 13.200463 13.200463 0 0 1-12.607184 17.353418z m281.807648-26.549247l-1.928158-3.856315c-48.945539-92.996524-191.480881-100.115875-255.70336 0l-2.669757 4.301275z m-57.844728-88.991889v-1.928157A692.356895 692.356895 0 0 1 578.447277 462.461182l4.152955-10.234067-2.373117 3.559675a554.122827 554.122827 0 0 0-81.724218 216.991889l-2.669757 21.803013h1.928158a173.534183 173.534183 0 0 1 24.17613 5.784473z m-132.004635-2.669756l16.908459-5.784473h4.152955l-0.889919-7.267671a341.135574 341.135574 0 0 0-33.816918-99.670915l-5.784473-10.530707 0.889919 2.966396a470.173812 470.173812 0 0 1 18.391657 120.584009z m-105.752028-90.326767v-1.631518c0-16.611819 1.631518-32.630359 2.224797-47.9073l1.928158-41.381229-2.076477 2.224798a76.088065 76.088065 0 0 0-6.971032 78.164542z m385.631518-46.275782l0.889919-1.038239c47.75898-70.451912 42.716107-124.588644 0-169.974508l-9.789108-9.640788 5.636153 21.951333a419.003476 419.003476 0 0 1 7.86095 63.6292 517.191194 517.191194 0 0 1-1.779837 72.67671z m-488.417149-50.428737l19.133256-11.865586c7.119351-4.004635 14.831981-7.86095 21.951332-11.420625s13.200463-6.081112 20.023175-8.60255l17.798378-6.229432h-2.224797a70.600232 70.600232 0 0 0-71.490151 30.998842z m166.118192-70.006953l3.114716-1.779838a370.799537 370.799537 0 0 1 46.127462-17.946697c6.971031-2.224797 14.090382-4.004635 21.061414-5.784473l19.726535-3.707995-4.597914-1.779838c-30.850521-10.234067-59.327926-3.559676-83.949015 28.625724zM290.261877 444.959444l-1.483198-2.076478a71.490151 71.490151 0 0 0-75.198146-19.874855l-5.932793 2.669757 18.836617 2.373117c8.15759 1.334878 16.16686 2.966396 24.17613 4.894554s14.831981 3.559676 21.061413 5.784473z m36.041715-11.717266l1.928158-6.674391a361.752028 361.752028 0 0 1 20.319814-45.385863 201.418308 201.418308 0 0 1 10.827347-18.984937l11.420626-16.463499-6.229433 2.521437A67.782155 67.782155 0 0 0 326.303592 427.606025z m529.946698-14.831981l-8.60255-13.645423c-39.74971-57.696408-86.025492-74.159907-138.827346-61.997682l-7.86095 2.224797 18.391657 4.597914a405.061414 405.061414 0 0 1 59.327926 23.137891 535.137891 535.137891 0 0 1 63.33256 36.041715z m-243.837776-105.752028l-1.928157-2.966396c-46.869061-68.078795-102.637312-77.274623-161.371958-54.581692l-7.119351 2.966396 16.463499 1.779838a421.228273 421.228273 0 0 1 62.590962 14.831982 539.290846 539.290846 0 0 1 67.782155 26.549246z m78.312863-3.856315l14.831981-6.526072a424.491309 424.491309 0 0 1 61.107764-19.578215 523.272306 523.272306 0 0 1 71.93511-11.717266l10.382387-0.741599-10.085748-3.263036c-67.782155-17.501738-114.057937 0-146.984936 39.749711z m-41.826188-14.831981v-2.076478c14.831981-80.982619-14.831981-127.406721-73.121669-153.214368l-8.602549-3.559676 11.272306 13.200464a431.462341 431.462341 0 0 1 33.816918 54.433372 568.658169 568.658169 0 0 1 28.922364 66.892236z" fill="#333333" p-id="4643"></path></svg>