<svg xmlns="http://www.w3.org/2000/svg" viewBox="0 0 600 450"><defs><style>.cls-1,.cls-10,.cls-11,.cls-12,.cls-13,.cls-14,.cls-2,.cls-21,.cls-23,.cls-24,.cls-25,.cls-26,.cls-27,.cls-28,.cls-29,.cls-3,.cls-4,.cls-5,.cls-7,.cls-8,.cls-9{fill-rule:evenodd;}.cls-1,.cls-6{opacity:0.1;}.cls-17,.cls-2{fill:#6f7173;}.cls-19,.cls-3{fill:#4f5253;}.cls-16,.cls-4{fill:#a3a3a3;}.cls-18,.cls-5{fill:#c4c4c4;}.cls-7{fill:#a0cf7e;}.cls-39,.cls-8{fill:#709d53;}.cls-9{fill:#ececeb;}.cls-10,.cls-20{fill:#99c26d;}.cls-11,.cls-43{fill:#bfdb8e;}.cls-12{fill:#cececd;}.cls-13,.cls-30{fill:#35785d;}.cls-14,.cls-37{fill:#72c9a6;}.cls-15,.cls-23{fill:#3f8f6f;}.cls-21,.cls-34{fill:#54b08b;}.cls-22{fill:none;stroke:#858686;stroke-miterlimit:10;stroke-width:1.07px;}.cls-24,.cls-38{fill:#446125;}.cls-25{fill:#dddddc;}.cls-26,.cls-31{fill:#dfbda5;}.cls-27{fill:#060808;opacity:0.2;}.cls-28{fill:#858686;}.cls-29{fill:#e8f078;}.cls-32{fill:#c3987b;}.cls-33{fill:#8b6651;}.cls-35{fill:#e8cab6;}.cls-36{fill:#fff;}.cls-40{fill:#2b2b2b;}.cls-41{fill:#738d57;}.cls-42{fill:#5a753d;}.cls-44{fill:#474747;}</style></defs><g id="ENFP"><g id="BG-12" data-name="BG"><polygon class="cls-1" points="594.47 402.31 478.11 376.5 427.02 382.24 144.04 350.34 1.25 398.28 142.72 438 357.96 410.66 482.12 426.13 594.47 402.31"/><polygon class="cls-2" points="265.78 314.73 262.34 379.89 246.32 386.62 243.35 315.12 265.78 314.73"/><polygon class="cls-2" points="179.25 332.77 181.65 416.46 200.85 407.2 194.34 332.77 179.25 332.77"/><polygon class="cls-3" points="246.32 386.62 232.27 384.8 226.87 324.55 246.32 315.95 246.32 386.62"/><polygon class="cls-4" points="181.65 335.97 181.65 416.46 160.36 414 168.3 334.55 175.1 332.77 181.65 335.97"/><polygon class="cls-2" points="34.69 400.59 41.31 395.44 53.32 321.89 33.09 312.83 34.69 400.59"/><polygon class="cls-4" points="11.3 317.77 19.1 398.03 34.69 400.59 37.88 320.24 27.58 310.96 11.3 317.77"/><polygon class="cls-3" points="119.89 323.23 119.89 375.1 137.04 376.84 139.37 321.25 119.89 323.23"/><polygon class="cls-2" points="137.04 376.84 149.86 370.69 147.16 326.43 137.04 322.94 137.04 376.84"/><polygon class="cls-4" points="181.65 315.12 184.35 325.24 181.65 335.97 11.3 317.77 8.3 284.21 181.65 315.12"/><polygon class="cls-2" points="265.78 285.94 265.78 314.73 181.65 335.97 181.65 315.12 265.78 285.94"/><polygon class="cls-1" points="231.38 282.05 190.05 288.31 223.76 300.52 265.78 285.94 231.38 282.05"/><polygon class="cls-5" points="265.78 285.94 181.65 321.25 8.3 284.21 89.28 265.95 265.78 285.94"/><polygon class="cls-6" points="83.03 294.74 134.23 306.54 164.09 292.85 83.03 294.74"/><polygon class="cls-7" points="465.11 17.52 436.95 414.73 457.59 417.18 476.46 199.88 486.71 18.75 465.11 17.52"/><polygon class="cls-8" points="486.71 18.75 497.77 23.66 470.74 412.27 457.59 417.18 486.71 18.75"/><polygon class="cls-7" points="441.42 92.24 368.76 399.89 387.76 404.75 430.95 236.94 462.66 96.27 441.42 92.24"/><polygon class="cls-8" points="461.51 96.27 471.9 101.7 401.34 402.76 387.76 404.75 461.51 96.27"/><polygon class="cls-7" points="502.31 132.51 558.9 402.39 538.56 406.23 504.15 258.94 480.92 135.61 502.31 132.51"/><polygon class="cls-8" points="480.92 135.61 470.28 140.13 525.12 404.22 538.56 406.23 480.92 135.61"/><polygon class="cls-5" points="587.99 72.92 597.39 74.15 583.2 298.47 574.71 301.3 578.03 177.52 587.99 72.92"/><polygon class="cls-8" points="589.1 57.56 598.5 61.25 597.39 74.15 587.99 72.92 586.05 65.86 589.1 57.56"/><polygon class="cls-9" points="339.37 60.02 464.23 60.7 587.93 73.71 574.71 301.3 328.03 282.38 339.37 60.02"/><polygon class="cls-10" points="339.37 60.02 339.9 46.39 589.1 57.56 587.99 72.92 339.37 60.02"/><polygon class="cls-11" points="499.32 61.74 498.3 80.17 446.09 77.51 446.91 59.49 499.32 61.74"/><polygon class="cls-12" points="163.25 226.69 173 221.97 173 237.87 163.08 246.69 163.25 226.69"/><polygon class="cls-13" points="49.75 266.66 143.32 270.29 140.39 294.02 49.75 284.08 49.75 266.66"/><polygon class="cls-12" points="140.39 273.83 154.61 266.53 173.53 262.33 173.53 280.1 140.39 294.02 140.39 273.83"/><polygon class="cls-14" points="49.75 266.66 86.3 255.28 173.53 262.33 140.39 273.83 49.75 266.66"/><polygon class="cls-15" points="119.39 269.45 120.86 260.26 119.39 251.74 38.5 249.05 38.5 263.63 119.39 269.45"/><polygon class="cls-12" points="119.39 251.74 152.53 244.92 152.53 259.08 119.39 269.45 119.39 251.74"/><polygon class="cls-14" points="152.53 244.92 78.94 240.78 38.5 249.05 119.39 254.1 152.53 244.92"/><polygon class="cls-13" points="165.2 226.69 74.56 229.56 74.56 246.1 163.08 246.69 165.2 226.69"/><polygon class="cls-14" points="173 221.97 88.69 220.93 74.56 229.56 163.25 229.05 173 221.97"/><polygon class="cls-15" points="152.53 210.08 64.81 207.72 66.76 226.05 152.53 226.05 152.53 210.08"/><polygon class="cls-12" points="66.76 207.72 57.68 200.43 57.68 215.03 66.76 226.05 66.76 207.72"/><polygon class="cls-14" points="57.68 200.43 138.89 200.43 152.53 210.08 66.76 210.08 57.68 200.43"/><polygon class="cls-16" points="92.31 122.05 83.34 118.34 48.75 170.08 69.44 160.47 92.31 122.05"/><polygon class="cls-16" points="73.57 98.15 90.98 94.38 92.05 116.55 83.34 118.34 73.57 98.15"/><polygon class="cls-16" points="87.55 146.03 96.49 161.62 103.04 159.75 98.3 141.21 87.55 146.03"/><polygon class="cls-17" points="74.23 111.89 85.67 150.94 105.42 146.21 96.68 107.37 74.23 111.89"/><polygon class="cls-16" points="91.89 172 98.32 199.58 107.16 199.16 98.18 167.81 91.89 172"/><polygon class="cls-18" points="86.09 175.72 83.11 171.73 117.99 162.65 118.27 168.4 86.09 175.72"/><polygon class="cls-18" points="48.75 170.08 69.44 160.47 100.1 200.32 91.46 204.88 48.75 170.08"/><polygon class="cls-19" points="48.67 206.96 55.28 195.45 120.34 195.77 128.46 205.37 48.67 206.96"/><polygon class="cls-16" points="115.88 189 120.34 195.77 55.28 195.45 57.96 189.87 115.88 189"/><polygon class="cls-9" points="135 251.82 130.78 221.33 118.82 221.71 117.28 251.15 95.28 288.18 103.06 297.81 127.54 297.05 152.02 296.28 159.09 286.18 135 251.82"/><polygon class="cls-20" points="154.76 286.18 141.74 267.6 110.82 269.01 99.59 287.9 104.83 294.39 150.01 292.97 154.76 286.18"/></g><g id="bg-13" data-name="bg"><polygon class="cls-21" points="531.73 283.1 515.13 281.64 519.31 223.18 535.9 224.64 531.73 283.1"/><polygon class="cls-10" points="506.84 280.91 490.25 279.45 495.08 211.69 511.68 213.15 506.84 280.91"/><polygon class="cls-13" points="556.62 285.3 540.03 283.84 542.87 243.97 559.46 245.44 556.62 285.3"/></g><g id="bg-14" data-name="bg"><line class="cls-22" x1="497.34" y1="92.61" x2="575.78" y2="98.39"/><line class="cls-22" x1="496.96" y1="98.88" x2="550.5" y2="102.82"/><line class="cls-22" x1="496.59" y1="105.14" x2="562.58" y2="110.01"/><line class="cls-22" x1="496.21" y1="111.41" x2="539.79" y2="114.63"/><line class="cls-22" x1="495.84" y1="117.68" x2="528.21" y2="120.07"/><line class="cls-22" x1="495.46" y1="123.95" x2="549" y2="127.9"/><line class="cls-22" x1="495.09" y1="130.22" x2="523.73" y2="132.33"/><line class="cls-22" x1="341.22" y1="266.29" x2="469.22" y2="277.46"/><line class="cls-22" x1="341.66" y1="260.03" x2="425.87" y2="267.37"/><line class="cls-22" x1="342.1" y1="253.76" x2="385.89" y2="257.58"/><line class="cls-22" x1="342.55" y1="247.5" x2="433.49" y2="255.43"/><line class="cls-22" x1="342.99" y1="241.23" x2="406.99" y2="246.82"/><line class="cls-22" x1="343.43" y1="234.97" x2="451.22" y2="244.38"/><line class="cls-22" x1="343.88" y1="228.71" x2="387.66" y2="232.53"/><line class="cls-22" x1="344.32" y1="222.44" x2="404.95" y2="227.73"/></g><g id="bg-15" data-name="bg"><polygon class="cls-8" points="409.85 157.59 433.58 143.51 457.31 137.97 464.63 172.72 440.04 169.5 409.85 157.59"/><polygon class="cls-23" points="457.31 137.97 437.24 116.44 419.44 136.56 409.85 157.59 457.31 137.97"/><polygon class="cls-13" points="437.24 116.44 401.63 114.74 401.63 140.32 409.85 157.59 437.24 116.44"/><polygon class="cls-14" points="401.63 114.74 368.44 151.63 389.14 157.59 409.85 157.59 401.63 114.74"/><polygon class="cls-24" points="368.44 151.63 375.34 179.22 393.89 171.55 409.85 157.59 368.44 151.63"/><polygon class="cls-10" points="375.34 179.22 390.65 199.2 401.63 182.55 409.85 157.59 375.34 179.22"/><polygon class="cls-8" points="409.85 157.59 390.65 199.2 429.47 206 422.68 181.79 409.85 157.59"/><polygon class="cls-11" points="429.47 206 464.63 172.72 409.85 157.59 429.47 206"/><path class="cls-25" d="M487,118.31a10.77,10.77,0,1,0-10.77,10.77A10.77,10.77,0,0,0,487,118.31Z"/><polygon class="cls-26" points="471.24 113.93 478.56 109.17 480.87 120.65 473.55 120.65 471.24 113.93"/><polygon class="cls-10" points="473.55 120.65 480.87 120.65 477.78 127.45 473.55 124.65 473.55 120.65"/><path class="cls-25" d="M455.12,99.11a10.77,10.77,0,1,0-10.77,10.77A10.77,10.77,0,0,0,455.12,99.11Z"/><polygon class="cls-26" points="439.32 94.73 446.64 89.97 448.95 101.44 441.63 101.44 439.32 94.73"/><polygon class="cls-14" points="441.63 101.44 448.95 101.44 445.86 108.25 441.63 105.45 441.63 101.44"/><path class="cls-25" d="M396.88,100.67a10.77,10.77,0,1,0-10.77,10.77A10.77,10.77,0,0,0,396.88,100.67Z"/><polygon class="cls-26" points="381.08 96.29 388.4 91.53 390.71 103.01 383.39 103.01 381.08 96.29"/><polygon class="cls-7" points="383.39 103.01 390.71 103.01 387.63 109.81 383.39 107.01 383.39 103.01"/><path class="cls-25" d="M473.59,210.68a10.77,10.77,0,1,0-10.77,10.77A10.77,10.77,0,0,0,473.59,210.68Z"/><polygon class="cls-26" points="457.8 206.3 465.12 201.54 467.43 213.02 460.11 213.02 457.8 206.3"/><polygon class="cls-11" points="460.11 213.02 467.43 213.02 464.34 219.82 460.11 217.02 460.11 213.02"/></g><g id="bg-16" data-name="bg"><polygon class="cls-23" points="518.71 154.17 519.63 159.65 523.48 164.12 525.03 160.12 518.71 154.17"/><polygon class="cls-23" points="525.91 169.64 513.44 173.15 516.76 177.62 527.06 176.14 527.26 174.37 525.91 169.64"/><polygon class="cls-23" points="533.49 172.13 533.68 162.91 530.57 155.78 528.48 168.09 533.49 172.13"/><polygon class="cls-14" points="551.43 192.52 529.34 167.41 527.25 168.63 525.51 171.04 545.99 198.61 551.43 192.52"/><polygon class="cls-21" points="545.98 203.7 527.06 176.14 525.51 171.04 546.09 197.82 546.81 200.48 545.98 203.7"/><polygon class="cls-23" points="551.43 192.52 551.79 197.79 545.98 203.7 546.09 197.82 551.43 192.52"/><polygon class="cls-21" points="529.34 167.41 530.57 155.78 518.71 154.17 524.16 160.81 518.44 165.92 511.8 160.16 513.44 173.15 525.51 171.04 529.34 167.41"/><polygon class="cls-11" points="520.23 167.94 525.75 163 527.48 165.01 521.92 169.95 520.23 167.94"/><path class="cls-10" d="M522,166.39l-.82.73.78,2.83.79-.7-.75-2.86Zm3.54.38,1-.88-.73-2.89-.89.79.63,3Zm-1.89,1.67,1.07-.95-1-2.67-.75.67Z"/><polygon class="cls-27" points="545.67 185.98 540.19 190.15 539.65 194.48 536.16 189.39 536.93 185.91 542.14 181.96 545.67 185.98"/><polygon class="cls-10" points="553.67 156.23 551.58 152.47 548.36 149.47 543.18 148.98 543 151.02 546.04 153.23 545.12 163.68 549.46 159.59 553.67 156.23"/><polygon class="cls-7" points="551.85 155.06 548.36 149.47 554.45 150.94 558.91 156.64 555.49 157.4 551.85 155.06"/><polygon class="cls-5" points="523.58 190.99 549.42 168.45 550.42 171.24 537.64 185.1 523.74 197.55 523.58 190.99"/><polygon class="cls-28" points="523.74 197.55 550.42 171.24 552.5 172.98 529.71 198.89 523.74 197.55"/><polygon class="cls-11" points="551.85 155.06 563.79 157.73 569.6 173.93 557.09 173.03 550.87 158.03 551.85 155.06"/><polygon class="cls-7" points="551.85 155.06 557.57 171.91 554.85 175.2 549.62 180.28 545.12 163.68 551.85 155.06"/><polygon class="cls-10" points="557.57 171.91 569.61 173.93 563.85 181.63 549.62 180.28 557.57 171.91"/><polygon class="cls-11" points="558.76 175.24 563.69 175.7 564.71 178.24 557.74 178.35 558.76 175.24"/><polygon class="cls-7" points="558.76 175.24 556.15 178.07 559.29 177.73 558.76 175.24"/><polygon class="cls-14" points="566.99 177.42 555.67 176.49 557.53 181.54 563.68 183.54 568.97 182.11 566.99 177.42"/><polygon class="cls-21" points="555.67 176.49 558.24 181.1 557.14 185.18 553.78 190.82 551.13 184.28 555.67 176.49"/><polygon class="cls-23" points="558.24 181.1 568.97 182.11 564.18 189.88 553.78 190.82 558.24 181.1"/></g><g id="bg-17" data-name="bg"><polygon class="cls-29" points="113.8 287.81 110.95 291.16 107.34 288.5 110.2 285.15 113.8 287.81"/><polygon class="cls-29" points="111.92 281.24 110.69 282.68 109.14 281.54 110.37 280.1 111.92 281.24"/><polygon class="cls-29" points="118.03 287.7 116.8 289.14 115.25 288 116.48 286.55 118.03 287.7"/><polygon class="cls-29" points="119.39 282.44 118.16 283.88 116.6 282.74 117.83 281.29 119.39 282.44"/></g><g id="Layer_48" data-name="Layer 48"><polygon class="cls-30" points="264.51 53.57 271.21 36.8 250.6 41.33 264.51 53.57"/><polygon class="cls-31" points="246 192.47 269.55 198.31 281.66 189 287.39 183.02 315.97 177.7 309.31 97.88 301.61 78.91 281.08 87.93 239.94 99.14 232.4 117.93 238.47 138.95 224.83 146.66 246 192.47"/><polygon class="cls-32" points="266.06 186.52 252.56 112.17 247.36 98.66 234.88 113.46 231.64 134.09 217.27 143.75 227 160.26 230.89 162.51 232.77 170.04 244.48 193.14 256.49 213.55 271.85 207.61 265.28 191.49 266.06 186.52"/><polygon class="cls-33" points="227.04 160.23 236.01 154.99 232.77 170.04 227.04 160.23"/><polygon class="cls-34" points="271.21 36.8 255.18 59.45 256.7 76.61 284.95 96.08 286.2 64.38 271.21 36.8"/><polygon class="cls-33" points="223.12 145.66 228.85 142.07 233.82 151.66 223.12 145.66"/><polygon class="cls-35" points="294.71 145.25 286.24 146.56 281.74 119.71 290.21 118.4 294.71 145.25"/><polygon class="cls-33" points="294.71 145.25 290.57 149.81 286.24 146.56 294.71 145.25"/><polygon class="cls-33" points="284.17 167.49 274.03 157.26 307.28 152.6 300.12 164.09 284.17 167.49"/><polygon class="cls-36" points="277.77 161.54 273.94 156.89 307.2 152.23 303.65 158.15 277.77 161.54"/><path class="cls-33" d="M275.93,157.6l29-4.07-5.61,9.7-15.29,2.85-8.12-8.48m-4.43-1.54,2.88,3,8.13,8.49.8.83,1.13-.21,15.29-2.85,1-.18.49-.85,5.6-9.7,2.2-3.79-4.34.61-29,4.06-4.13.58Z"/><polygon class="cls-30" points="258.95 117.14 261.5 118.08 272.54 110.31 278.24 112.2 279.06 110.65 273.88 103.99 258.95 117.14"/><polygon class="cls-30" points="292 110.45 297.99 109.2 301.37 103.13 308.23 99.5 299.97 100.06 292 110.45"/><polygon class="cls-37" points="305.85 74.29 294.22 54.08 271.21 36.8 284.95 96.08 305.85 74.29"/><polygon class="cls-15" points="206.35 127.24 217.27 143.75 231.85 138.2 238.69 150.06 249.53 144.25 238.92 118.23 223.98 115.3 206.35 127.24"/><polygon class="cls-38" points="253.82 119.13 214.14 138.77 217.27 143.75 255.64 129.14 253.82 119.13"/><polygon class="cls-15" points="227.48 73.88 234.99 93.47 247.46 99.4 247.46 99.4 247.62 99.06 284.95 96.08 255.18 59.45 227.48 73.88"/><polygon class="cls-30" points="206.35 127.24 238.92 118.23 247.46 99.4 227.48 73.88 206.35 127.24"/><polygon class="cls-32" points="261.05 135.01 263.08 125.51 277.89 122.77 279.04 119.44 257.89 121.29 261.05 135.01"/><polygon class="cls-32" points="303.18 116.6 297.4 120.19 296.7 129.94 292.32 115.94 303.18 116.6"/><polygon class="cls-33" points="284.95 96.08 303.79 84.27 301.58 78.86 284.95 96.08"/><polygon class="cls-32" points="292 110.45 289.86 114.05 306.19 111.9 308.23 99.5 301.37 103.13 297.99 109.2 292 110.45"/><polygon class="cls-32" points="278.24 112.2 280.03 115.68 261.4 118.15 272.54 110.31 278.24 112.2"/><polygon class="cls-32" points="261.36 138.8 285 139.15 284.34 135.22 261.36 138.8"/><polygon class="cls-32" points="293.51 138.09 311.77 130.21 292.97 134.88 293.51 138.09"/><path class="cls-33" d="M287.85,182.88,258.55,187l7.9,21.63,10.91-4.12q3.63-6.65,7.27-13.27Z"/><path class="cls-39" d="M291.35,113.82v0l-.48.08-1.4.18v0l-8.39,1.39-27.27,3.63L257.61,140l26.73-4.75-2.55-15.51,8.4-1.39L293,134.88l26.7-4.72-2.86-19.62ZM279.2,131.76,261.05,135l-2.22-12.22,18.71-2.41Zm35.65-5.07-18.15,3.25-2.22-12.22,18.71-2.41Z"/><path class="cls-40" d="M303.44,120.81a3.12,3.12,0,1,1-4.29-1A3.11,3.11,0,0,1,303.44,120.81Z"/><path class="cls-40" d="M271.93,125.45a3.12,3.12,0,1,1-4.29-1A3.13,3.13,0,0,1,271.93,125.45Z"/></g><g id="Layer_52" data-name="Layer 52"><polygon class="cls-34" points="265.25 332.87 257.09 353.74 230.49 354.27 218.54 350.07 219.73 294.77 255.37 315.49 265.25 332.87"/><polygon class="cls-34" points="309.31 345.26 310.25 294.25 265.93 308.06 265.25 332.87 273.67 354.03 305.34 355.84 309.31 345.26"/><polygon class="cls-30" points="273.67 354.03 283.96 381.54 308.4 390.74 309.94 376.52 309.31 345.26 273.67 354.03"/><polygon class="cls-30" points="244.69 386.19 257.09 353.74 218.54 350.07 217.82 384.66 230.6 393.54 244.69 386.19"/><polygon class="cls-15" points="307.49 293.97 265.25 332.87 219.73 294.77 307.49 293.97"/><polygon class="cls-20" points="309.94 376.52 328.63 395.61 303.44 399.79 283.67 395.18 283.96 381.54 309.94 376.52"/><rect class="cls-41" x="283.64" y="395.39" width="44.97" height="5.87" transform="translate(3.86 -2.93) rotate(0.55)"/><polygon class="cls-20" points="244.69 386.19 251.33 403.8 238.32 406.92 213.68 403.31 217.82 384.66 244.69 386.19"/><polygon class="cls-41" points="251.1 410.8 213.4 410.09 213.68 403.31 251.33 403.8 251.1 410.8"/></g><g id="Layer_51" data-name="Layer 51"><polygon class="cls-42" points="214.8 204.71 181.26 256.89 186.61 258.12 195.17 265.59 217.25 265.44 220.87 256.39 231.48 224.49 214.8 204.71"/></g><g id="Layer_47" data-name="Layer 47"><polygon class="cls-31" points="354.24 160.23 356.33 154.66 374.19 138.78 349.6 126.07 344.23 153.62 345.61 149.24 354.24 160.23"/><polygon class="cls-32" points="344.92 147.73 339.56 124.82 343.74 122.28 355.11 140.74 347.65 152.64 344.92 147.73"/><polygon class="cls-32" points="374.19 138.78 375.43 121.15 357.98 115.01 349.6 126.07 374.19 138.78"/><polygon class="cls-32" points="319.25 202.75 352.54 199.71 356.33 154.66 344.98 148.12 319.25 202.75"/><polygon class="cls-42" points="299.5 205.05 308.87 195.9 326.92 186.1 352.54 199.71 309.23 251.16 299.5 205.05"/></g><g id="Layer_50" data-name="Layer 50"><polygon class="cls-20" points="274.07 232.07 268.1 260.67 245 265.83 220.87 256.39 214.8 204.71 233.87 199.26 266.45 208.59 274.07 232.07"/><polygon class="cls-43" points="295.38 194.49 266.45 208.59 266.87 221.82 266.87 221.81 268.1 260.67 292.81 261.52 309.23 251.16 308.87 195.9 295.38 194.49"/><polygon class="cls-44" points="257.65 216.73 266.87 221.81 274.64 215.46 266.45 208.59 257.65 216.73"/><polygon class="cls-42" points="255.31 257.93 220.87 256.39 222.75 301.01 270.46 311.61 278.42 270.67 255.31 257.93"/><polygon class="cls-39" points="309.23 251.16 268.1 260.67 268.24 272.25 270.46 311.61 310.25 294.25 309.23 251.16"/><polygon class="cls-17" points="255.31 257.93 255.31 257.93 268.17 266.23 281.49 257.68 266.87 221.81 255.31 257.93"/><polygon class="cls-44" points="281.49 257.68 255.31 257.93 268.24 272.25 281.49 257.68"/><polygon class="cls-38" points="242.94 189.35 233.87 199.26 255.16 223.16 266.45 208.59 242.94 189.35"/><polygon class="cls-38" points="266.45 208.59 277.04 220.79 295.38 194.49 285.25 189.43 266.45 208.59"/></g><g id="Layer_49" data-name="Layer 49"><polygon class="cls-32" points="194.24 270.6 213.99 301.81 223.76 297 226.5 292.03 217.25 265.44 195.49 265.57 194.24 270.6"/><polygon class="cls-31" points="226.5 292.03 241.09 298.69 235.66 309.47 223.2 316.91 213.99 301.81 226.5 292.03"/><polygon class="cls-33" points="186.61 258.12 194.24 270.6 217 265.38 186.61 258.12"/><polygon class="cls-32" points="241.09 298.69 246.79 318.68 231.02 327.12 223.2 316.91 241.09 298.69"/></g></g></svg>